<svg width="2208" height="2592" viewBox="0 0 2208 2592" fill="none" xmlns="http://www.w3.org/2000/svg">
<g clip-path="url(#clip0_411_687)">
<rect width="2208" height="2592" fill="white"/>
<path fill-rule="evenodd" clip-rule="evenodd" d="M420 444.518C408.242 462.122 402.912 464.001 388.738 455.061C383.815 451.956 379.166 447.857 374.546 443.842C366.251 436.647 357.659 431.012 348.064 428.141C337.336 424.927 329.293 430.47 322.504 441.714C320.134 445.645 318.273 450.219 315.938 454.193C302.204 477.565 283.181 491.271 261.68 477.506C255.388 473.483 249.177 469.117 243.103 464.435C234.659 457.924 226.382 450.962 218.029 444.193C205.991 434.435 187.872 436.772 177.436 455.895C167.269 474.526 154.108 481.438 137.513 476.68C121.684 472.139 108.334 461.371 95.7399 447.648C92.62 444.251 89.626 440.603 86.5404 437.131C73.9119 422.949 58.5871 421.939 45.0884 434.927C38.0872 441.663 31.4237 449.001 27.2734 460.328C26.3002 462.974 22.8597 465.762 21.0621 465.169C19.0413 464.51 16.4309 460.319 16.1676 457.273C15.6982 451.864 16.2535 445.929 17.3526 440.645C19.5966 429.869 24.5313 421.605 30.5707 414.769C44.4301 399.093 60.4876 394.852 77.3009 397.941C82.8881 398.967 88.4238 404.134 93.3069 408.884C99.2606 414.677 104.476 422.073 110.057 428.675C120.304 440.804 131.822 448.4 145.08 450.537C150.988 451.488 155.694 449.126 159.747 443.208C161.441 440.737 163.107 438.208 164.664 435.553C180.894 407.816 206.454 405.979 224.555 419.159C234.161 426.154 243.327 434.443 252.789 441.864C257.787 445.779 263.031 449.017 268.12 452.69C281.418 462.289 292.129 452.156 299.943 439.527C302.943 434.685 305.198 428.892 307.998 423.767C318.319 404.861 331.463 395.988 348.253 399.51C360.012 401.972 370.785 407.891 381.01 416.647C391.073 425.261 401.401 433.233 411.728 441.171C413.932 442.865 416.622 443.199 419.989 444.51L420 444.518Z" fill="#112A41"/>
<path fill-rule="evenodd" clip-rule="evenodd" d="M447 354.441C440.217 362.797 434.616 371.591 427.885 377.617C412.281 391.577 396.768 385.77 381.981 373.735C373.091 366.502 364.71 357.901 355.934 350.339C338.561 335.375 317.898 341.258 305.303 364.51C303.436 367.953 301.86 371.751 299.982 375.178C289.054 395.155 273.062 397.611 259.884 381.086C253.964 373.659 248.683 365.05 242.545 358.062C235.956 350.567 228.876 343.899 221.677 337.704C216.002 332.818 209.641 332.97 203.378 335.704C191.685 340.81 181.226 349.529 172.947 362.552C158.245 385.686 140.631 392.151 121.299 377.989C113.426 372.224 106.597 363.134 99.6205 354.947C94.4877 348.921 90.04 341.629 85.0157 335.383C75.3268 323.348 66.0147 322.648 55.4123 332.615C46.1402 341.342 43.1256 346.777 39.3174 361.868C34.7213 364.206 32.2091 359.691 32.0435 354.373C31.8437 348.103 32.2776 340.616 34.4815 335.628C38.1698 327.281 42.9086 319.415 48.2184 313.262C61.4015 297.994 79.98 298.324 93.1574 313.802C100.625 322.572 107.46 332.539 114.374 342.296C122.001 353.057 130.497 360.155 141.431 360.273C147.597 360.341 152.713 358.028 156.287 350.533C164.194 333.957 175.83 324.513 187.643 316.149C203.355 305.025 219.056 305.227 234.797 318.63C246.399 328.513 255.991 341.46 265.525 354.863C277.584 371.819 280.518 371.203 290.641 351.132C305.497 321.677 326.171 314.241 349.551 318.022C352.697 318.529 355.872 320.858 358.681 323.247C367.233 330.497 376.117 337.198 383.962 345.908C401.422 365.286 419.903 364.603 439.264 354.711C440.925 353.867 442.598 353.065 444.282 352.323C444.482 352.238 444.796 352.685 447 354.416V354.441Z" fill="#112A41"/>
<path fill-rule="evenodd" clip-rule="evenodd" d="M43.8169 277.633C41.0493 267.541 41.6006 259.399 44.4079 252.244C54.6145 226.249 69.1686 207.965 89.5762 201.184C99.1406 198.005 107.722 201.234 115.331 210.803C124.208 221.967 132.005 234.242 137.728 249.331C140.013 255.348 142.797 261.225 146.093 266.088C153.453 276.936 162.142 275.758 169.462 264.727C176.253 254.494 182.902 243.588 190.824 235.512C208.981 217.012 232.077 220.896 248.08 243.438C252.149 249.165 255.996 255.282 260.338 260.527C263.032 263.781 266.316 266.288 269.596 268.155C278.558 273.268 281.314 272.263 286.781 260.519C295.038 242.799 305.125 228.631 319.208 221.361C338.308 211.5 355.971 213.634 371.724 234.068C376.822 240.683 382.266 246.891 387.995 252.286C396.655 260.444 405.913 263.233 416.006 257.042C424.081 252.087 432.634 251.696 443 253.273C440.323 258.536 438.88 262.843 436.578 265.657C418.864 287.369 400.145 291.668 379.749 274.272C373.117 268.62 366.439 262.08 361.29 253.921C349.487 235.23 323.408 235.952 308.535 260.32C304.58 266.794 300.983 273.766 297.436 280.738C291.668 292.083 283.956 295.86 274.659 293.843C264.049 291.536 254.786 285.037 246.949 274.338C243.687 269.89 240.641 265.109 237.407 260.619C226.041 244.833 211.805 242.633 199.28 255.904C193.336 262.204 187.34 269.441 183.18 278.115C172.491 300.383 147.531 299.138 137.194 283.053C132.761 276.156 128.431 268.753 125.231 260.594C120.565 248.709 114.627 238.79 107.966 229.312C102.136 221.004 95.5206 218.472 88.36 222.108C71.0895 230.872 56.149 244.393 47.7154 269.583C46.9198 271.965 45.607 273.981 43.8169 277.633Z" fill="#112A41"/>
<g clip-path="url(#clip1_411_687)">
<path d="M364.724 801.873C406.426 816.584 439.878 779.042 446.535 741.036C414.977 720.279 375.952 674.166 397.687 635.302C411.203 612.045 442.523 622.59 455.237 641.097C475.436 665.576 476.953 697.21 477.429 727.453C519.131 745.867 570.764 706.426 562.658 659.718C553.31 666.66 549.988 677.881 539.255 682.912C526.447 687.148 526.197 673.264 531.149 665.012C561.818 603.06 551.687 592.911 617.312 632.489C623.236 636.023 629.862 640.089 631.68 647.206C633.166 652.507 629.304 657.563 623.775 657.419C620.108 657.325 616.215 656.592 612.867 655.132C599.564 649.136 588.938 643.86 575.591 636.774C579.804 650.99 584.524 662.262 584.016 676.935C580.863 728.831 531.061 764.757 472.891 752.276C460.095 803.727 413.503 847.754 357.959 830.343C342.193 870.366 311.668 902.425 269.603 913.785C259.221 916.811 243.26 914.58 240.219 902.225C239.216 897.977 241.517 894.625 245.699 894.168C285.514 895.12 318.42 851.118 328.513 815.318C297.093 787.387 261.892 736.362 277.778 693.056C283.984 679.592 295.801 674.548 309.857 679.147C353.214 697.129 367.288 759.13 364.705 801.866L364.724 801.873ZM298.741 697.21C274.386 715.348 314.145 773.416 333.66 784.067C342.506 765.49 322.79 699.917 298.741 697.21ZM450.366 714.578C451.35 694.272 448.36 674.266 437.865 656.617C433.878 649.205 421.001 636.455 413.572 646.185C399.335 666.109 430.123 710.493 450.366 714.578Z" fill="#1E364C"/>
</g>
<path d="M247.876 1240.61C260.498 1230.79 261.227 1197.99 265.797 1182.26C270.645 1153.39 280.449 1124.88 281.293 1095.55C282.609 1073.75 247.197 1045.8 233.024 1070.7C205.786 1116.83 178.976 1226.74 187.036 1279.44C191.055 1304.75 214.61 1314.75 237.486 1318.05C261.127 1324.21 268.571 1297.29 276.08 1280.52C287.185 1249.74 297.04 1218.44 307.716 1187.54C310.14 1183.06 317.32 1170.65 322.14 1179.24C332.015 1204.87 300.207 1303.03 282.373 1324.73C260.076 1353.86 217.621 1340.96 191.555 1323.87C163.552 1304.98 160.448 1268.45 162.515 1237.54C170.209 1175.14 177.882 1107.4 215.289 1054.96C244.937 1019.05 301.681 1059.14 298.727 1099.4C297.254 1137.26 289.402 1174.77 284.454 1212.31C283.088 1221.18 281.186 1230.13 278.139 1238.54C272.504 1256.45 254.055 1274.31 235.176 1261.64C214.703 1249.93 206.043 1226.94 210.484 1204.05C215.311 1185.99 216.076 1165.91 225.808 1149.65C228.368 1145.91 234.883 1146.94 236.32 1151.31C240.096 1165.56 235.04 1180.52 234.425 1194.97C232.523 1212.22 227.768 1232.67 247.869 1240.61H247.876Z" fill="#1E364C"/>
<path d="M851.208 926.369L884.742 945.359L850.555 1036L787.274 1000.17L851.208 926.369Z" fill="#FFFAFA"/>
<path d="M868.054 896.621L911.246 901.079L885.518 946.512L850.902 926.91L868.054 896.621Z" fill="#1E364C"/>
<path d="M805.901 967.04C807.294 964.709 810.294 963.917 812.657 965.255L866.456 995.72C868.779 997.036 869.659 999.945 868.454 1002.33L717.659 1300.46C716.371 1303.01 713.217 1303.96 710.734 1302.55L636.454 1260.49C634.011 1259.11 633.186 1255.98 634.626 1253.57L805.901 967.04Z" fill="#1E364C"/>
<path d="M1083.15 769.292L1117.81 752.443L1173.08 832.008L1107.68 863.805L1083.15 769.292Z" fill="#FFFAFA"/>
<path d="M1068.21 738.546L1096.37 705.501L1119.2 752.458L1083.42 769.851L1068.21 738.546Z" fill="#3E957B"/>
<path d="M1090.95 829.674C1089.83 827.205 1090.87 824.285 1093.32 823.098L1148.92 796.066C1151.32 794.899 1154.22 795.824 1155.49 798.168L1315.52 1091.45C1316.89 1093.95 1315.88 1097.09 1313.32 1098.34L1236.55 1135.66C1234.02 1136.89 1230.98 1135.8 1229.81 1133.25L1090.95 829.674Z" fill="#3E957B"/>
<path d="M1306.55 461.231L1271.02 476.149L1220.21 393.665L1287.27 365.513L1306.55 461.231Z" fill="#FFFAFA"/>
<path d="M1319.79 492.752L1289.85 524.199L1269.64 476.057L1306.31 460.658L1319.79 492.752Z" fill="#EF6A3B"/>
<path d="M1302.09 400.511C1303.08 403.039 1301.87 405.897 1299.37 406.948L1242.36 430.882C1239.9 431.915 1237.06 430.832 1235.91 428.421L1092.25 126.785C1091.03 124.209 1092.2 121.13 1094.83 120.025L1173.54 86.9808C1176.13 85.894 1179.1 87.1509 1180.13 89.7643L1302.09 400.511Z" fill="#EF6A3B"/>
<path d="M1577 2382.99C1576.69 2372.33 1568.07 2363.78 1557.41 2363.57L1156.41 2355.41C1145.21 2355.18 1136 2364.2 1136 2375.41V2838C1136 2854.57 1149.43 2868 1166 2868H1560.12C1577.03 2868 1590.6 2854.03 1590.11 2837.13L1577 2382.99Z" fill="white"/>
<path opacity="0.8" d="M1002.78 2278.22L1004.74 2279.12L1004.66 2280.57L1002.71 2281.84L1000.9 2283.11L999.662 2284.44L1000.72 2286.01L1001.31 2287.52L1003.16 2289.16L1002.81 2290.58L1000.98 2291.85L1003.12 2293.52L998.855 2294.55L998.512 2295.97L998.46 2297.42L998.806 2298.91L998.75 2300.37L1002.61 2302.21L997.88 2303.18L999.757 2304.83L1000.81 2306.39L1000.62 2307.83L997.533 2308.97L999.083 2310.58L1000.4 2312.16L997.122 2313.28L1000.77 2315.11L998.087 2316.28L996.983 2317.62L991.201 2318.87L994.407 2320.65L991.056 2321.76L992.893 2323.39L994.273 2324.98L993.46 2326.34L993.792 2327.82L992.975 2329.19L992.91 2330.64L993.493 2332.15L992.411 2333.49L987.01 2333.69L987.213 2335.16L988.965 2336.79L983.15 2337.95L985.685 2339.66L983.467 2340.89L984.144 2342.41L983.193 2343.76L983.848 2345.29L986.544 2347.01L985.686 2348.37L984.9 2349.75L983.129 2351.02L985.167 2352.67L982.738 2353.88L981.496 2355.21L983.923 2356.91L985.218 2358.49L983.094 2359.73L981.963 2361.06L981.285 2362.44L981.967 2363.37L1228.13 2387.98L1229.32 2387.62L1229.88 2386.21L1227.75 2384.54L1227.78 2383.09L1230.16 2381.87L1230.67 2380.46L1226.45 2378.58L1227.86 2377.27L1227.52 2375.78L1227.66 2374.34L1228.78 2373L1227.53 2371.41L1227.08 2369.91L1228.16 2368.56L1231.01 2367.4L1230.63 2365.9L1230.17 2364.4L1231.15 2363.04L1227.78 2361.25L1229.83 2360.01L1230.47 2358.61L1230.61 2357.18L1232.56 2355.91L1232.9 2354.5L1230.62 2352.82L1232.55 2351.56L1230.69 2349.92L1232.56 2348.66L1231.62 2347.11L1230.81 2345.57L1233.31 2344.38L1230.49 2342.64L1230.49 2341.2L1233.57 2340.06L1234.97 2338.76L1234.58 2337.26L1234.02 2335.76L1231.01 2334L1233.38 2332.78L1235.42 2331.54L1234.54 2329.99L1235.6 2328.66L1233.27 2326.96L1235.31 2325.71L1234.85 2324.22L1235.97 2322.87L1233.71 2321.2L1236.18 2319.99L1233.8 2318.3L1235.51 2317.02L1235.34 2315.56L1235.1 2314.08L1234.56 2312.57L1236.57 2311.32L1236.98 2309.92L1238.04 2308.56L1236.66 2306.97L1236.97 2305.55L1238.17 2304.23L1236.06 2302.56L1234.97 2301.37L1002.78 2278.22Z" fill="#F3A648"/>
<path opacity="0.8" d="M2084.79 1262.82L2084.83 1260.53L2086.7 1258.29L2086.18 1255.99L2084.42 1253.67L2086.44 1251.42L2085.17 1249.12L2082.5 1246.78L2083.58 1244.52L2082.8 1242.22L2084.05 1239.95L2084.38 1237.69L2077.72 1234.62L2073.25 1231.05L2074.08 1228.79L2074.85 1226.52L2071.82 1224.19L2075.86 1221.98L2071.64 1219.62L2075.16 1217.41L2076.19 1215.14L2080.22 1214.14L2080.94 1211.87L2081.13 1209.59L2079.95 1207.28L2076.86 1204.94L2078.68 1202.7L2078.1 1200.4L2088.6 1198.97L2084.07 1196.6L2087.94 1194.39L2085.06 1192.05L2084.51 1189.76L2089.48 1187.58L2083.03 1185.18L2084.27 1182.92L2087.89 1180.7L2087.6 1180.05L1886.62 1176.24L1885.22 1176.88L1887.52 1178.24L1889.5 1181.55L1888.88 1183.82L1895.17 1186.43L1899.59 1188.8L1899.88 1191.08L1895.1 1193.28L1898.9 1195.64L1895.31 1197.86L1897.55 1200.18L1899.05 1202.5L1895.44 1204.71L1894.4 1206.98L1898.49 1209.34L1895.47 1211.55L1897.29 1213.88L1903.16 1215.21L1904.59 1217.51L1905.43 1219.8L1898.52 1221.95L1901.24 1223.47L1902.95 1226.6L1905.05 1228.92L1904.93 1231.2L1901.14 1233.41L1898.02 1235.05L1905.07 1238.06L1910.56 1242.99L1917.5 1243.65L1916.87 1245.92L1920.03 1248.26L1920.14 1250.54L1916.96 1252.77L1916.41 1255.04L1922.49 1257.44L1920.68 1259.68L1921.32 1261.97L1921.28 1264.22L2085.49 1267.41L2087.3 1265.15L2084.79 1262.82Z" fill="#3E957B"/>
<path opacity="0.8" d="M1525.96 1951.36L1525.47 1952.78L1527.68 1954.35L1527.73 1955.81L1529.72 1958.81L1529.28 1960.24L1533.58 1961.91L1532.25 1963.29L1532.67 1964.76L1532.59 1966.21L1531.54 1967.61L1532.86 1969.12L1533.39 1970.6L1532.38 1972L1529.59 1973.31L1530.05 1974.78L1530.58 1976.26L1529.67 1977.66L1533.13 1979.29L1531.15 1980.63L1530.58 1982.05L1530.5 1983.49L1528.62 1984.85L1525.83 1984.57L1525.25 1985.84L1523.39 1987.19L1525.34 1988.74L1523.53 1990.09L1524.54 1991.6L1521.72 1992.45L1519.29 1993.76L1522.19 1995.35L1522.26 1996.8L1519.24 1998.09L1517.91 1999.46L1518.38 2000.93L1519 2002.41L1522.1 2004.02L1524.66 2006.33L1522.68 2007.68L1523.64 2009.17L1522.64 2010.57L1525.06 2012.14L1523.08 2013.48L1523.61 2014.96L1522.56 2016.35L1524.91 2017.92L1522.49 2019.24L1524.95 2020.81L1523.32 2022.18L1523.57 2023.63L1523.88 2025.1L1524.5 2026.58L1522.54 2027.92L1522.2 2029.36L1521.22 2030.75L1522.68 2032.27L1522.43 2033.71L1521.3 2035.09L1523.48 2036.65L1524.52 2037.65L1818.42 2052.05L1819.66 2051.64L1815.1 2049.95L1818.9 2048.69L1818.15 2047.2L1816.68 2045.67L1819.75 2044.38L1819.35 2042.91L1816.22 2041.3L1818.22 2039.95L1815.76 2038.38L1814.57 2036.93L1814.97 2035.51L1814.6 2034.04L1812.16 2032.46L1815.54 2031.18L1814.96 2029.7L1816.12 2028.31L1809.17 2026.53L1809.42 2025.09L1810.53 2023.7L1807.98 2022.12L1810.21 2020.79L1810.8 2019.37L1808.22 2017.79L1810.63 2016.46L1810.33 2015L1812.89 2013.69L1810.57 2012.12L1812.77 2010.78L1811.44 2009.28L1810.22 2007.76L1811.72 2006.4L1809.71 2004.85L1812.59 2003.56L1813.45 2002.16L1809.33 2000.5L1809.34 1999.05L1811.22 1997.7L1812.97 1996.35L1814.14 1994.96L1813 1993.45L1812.33 1991.97L1810.41 1990.43L1815.56 1988.53L1812.44 1987.64L1815.1 1985.61L1814.43 1984.84L1814.71 1983.41L1819.56 1981.49L1819.13 1980.02L1819.12 1978.58L1815.16 1976.93L1819.84 1975.73L1817.89 1974.18L1816.76 1972.68L1816.87 1971.23L1819.91 1969.94L1818.27 1968.41L1816.88 1966.89L1820.1 1965.62L1817.75 1964.59L1527 1950.98L1525.96 1951.36Z" fill="#BF5A36"/>
<path d="M918.208 322.369L951.742 341.359L917.555 432.003L854.274 396.168L918.208 322.369Z" fill="#FFFAFA"/>
<path d="M935.054 292.621L978.246 297.079L952.518 342.512L917.902 322.91L935.054 292.621Z" fill="#F1B569"/>
<path d="M872.901 363.04C874.294 360.709 877.294 359.917 879.657 361.255L933.456 391.72C935.779 393.036 936.659 395.945 935.454 398.328L784.659 696.46C783.371 699.006 780.217 699.96 777.734 698.554L703.454 656.491C701.011 655.107 700.186 651.984 701.626 649.574L872.901 363.04Z" fill="#F1B569"/>
<g clip-path="url(#clip2_411_687)">
<path d="M720.589 1811.82C717.189 1812.99 715.745 1813.66 714.237 1813.97C706.843 1815.49 703.788 1813.14 704.702 1806.06C706.145 1794.95 708.038 1783.91 709.706 1772.83C710.26 1769.17 710.717 1765.51 711.318 1761.15C708.303 1759.6 705.68 1758.02 702.873 1756.86C690.523 1751.81 678.053 1747.03 665.758 1741.85C658.645 1738.85 655.461 1734.68 656.48 1730.41C657.795 1724.9 662.446 1723.02 667.186 1722.01C681.276 1719.03 695.391 1716.08 709.586 1713.69C747.495 1707.31 785.428 1701.04 823.417 1695.11C837.644 1692.89 852.04 1691.69 866.363 1690.14C869.539 1689.79 872.778 1689.77 875.97 1689.95C885.089 1690.47 890.863 1700.19 886.564 1708.36C884.359 1712.55 881.263 1716.41 878.015 1719.91C868.929 1729.68 859.955 1739.61 850.235 1748.73C816.336 1780.5 782.164 1811.98 748.032 1843.49C744.913 1846.38 741.576 1849.16 737.935 1851.3C730.573 1855.63 722.53 1852.18 720.669 1843.72C719.651 1839.1 719.667 1834.19 719.675 1829.42C719.675 1824.14 720.204 1818.85 720.597 1811.82H720.589ZM811.941 1711.73C809.303 1712.06 806.656 1712.31 804.042 1712.74C768.37 1718.56 732.707 1724.4 697.051 1730.28C694.966 1730.63 692.921 1731.3 690.884 1731.89C690.411 1732.03 689.914 1732.43 689.649 1732.85C689.473 1733.13 689.681 1733.66 689.777 1734.92C695.712 1737.41 702.128 1739.84 708.311 1742.77C715.994 1746.42 723.139 1746.17 731.231 1743.11C753.59 1734.67 776.294 1727.14 798.853 1719.25C802.366 1718.02 805.958 1716.98 809.327 1715.45C810.441 1714.93 810.963 1713.13 811.789 1711.92C812.214 1711.9 812.647 1711.81 813.056 1711.87C813.393 1711.92 813.697 1712.16 814.018 1712.31C813.321 1712.12 812.623 1711.93 811.933 1711.74L811.941 1711.73ZM825.286 1743.18C824.765 1742.91 824.139 1742.35 823.834 1742.48C797.762 1754.45 771.73 1766.48 745.674 1778.48C741.352 1780.47 739.259 1784.03 738.729 1788.48C737.486 1799.02 736.356 1809.58 735.425 1820.16C735.273 1821.91 736.332 1823.77 736.837 1825.59C738.818 1825.01 740.045 1825.02 740.686 1824.42C768.651 1798.25 796.567 1772.05 824.444 1745.79C825.029 1745.24 825.021 1744.06 825.286 1743.19V1743.18ZM721.728 1775.26C722.698 1775.66 723.66 1776.04 724.631 1776.42C729.611 1768.39 736.725 1763.06 745.017 1759.13C751.761 1755.93 758.418 1752.56 765.034 1749.12C768.017 1747.58 770.824 1745.69 773.711 1743.96C756.477 1747.83 740.165 1753.73 724.358 1760.51C723.356 1766.12 722.538 1770.69 721.728 1775.25V1775.26Z" fill="#1E364C"/>
<path d="M481.635 1877.23C487.224 1878.52 489.646 1879.4 492.125 1879.59C500.096 1880.22 508.116 1881.26 516.071 1880.97C547.268 1879.81 577.422 1872.9 606.806 1862.76C616.758 1859.32 626.398 1854.64 634.209 1847.03C632.028 1842.67 628.547 1844.76 625.781 1844.64C620.48 1844.4 615.154 1844.7 609.878 1844.35C608.827 1844.28 607.255 1842.34 607.111 1841.12C606.958 1839.85 607.881 1837.79 608.963 1837.18C611.69 1835.64 614.689 1834.38 617.729 1833.63C632.236 1830.04 646.752 1826.5 661.348 1823.3C665.422 1822.41 669.857 1822.17 673.987 1822.72C679.665 1823.47 682.624 1829.49 680.547 1834.92C679.793 1836.91 678.823 1838.84 677.724 1840.66C670.25 1852.94 662.791 1865.24 655.141 1877.42C653.465 1880.09 651.436 1882.9 648.861 1884.49C647.025 1885.63 643.705 1885.52 641.587 1884.64C640.232 1884.09 638.885 1880.93 639.23 1879.3C640.28 1874.32 642.157 1869.51 643.656 1864.79C640.376 1862.53 637.898 1864.08 635.557 1865.04C626.182 1868.89 616.791 1872.72 607.56 1876.91C583.541 1887.82 558.311 1894.69 532.279 1898C508.292 1901.05 484.249 1901.33 462.877 1890.44C460.463 1891.03 459.308 1891.06 458.418 1891.56C432.274 1906.33 404.237 1916.77 376.032 1926.62C346.246 1937.03 320.038 1952.7 297.92 1975.24C294.616 1978.61 290.566 1981.34 286.564 1983.91C284.03 1985.55 279.515 1982.04 280.164 1979.04C280.71 1976.5 281.471 1973.81 282.875 1971.67C298.65 1947.59 317.552 1927.02 345.324 1916.41C363.769 1909.36 382.167 1902.2 400.524 1894.95C413.836 1889.68 427.422 1884.94 439.227 1877.27C440.125 1872.15 436.324 1870.09 434.351 1867.19C419.017 1844.62 419.562 1823.45 436.805 1802.51C450.727 1785.6 468.715 1774.37 489.31 1767.27C493.311 1765.89 497.594 1764.98 501.804 1764.62C518.277 1763.22 530.298 1773.05 530.523 1789.52C530.643 1798.4 528.686 1807.56 526.16 1816.15C520.61 1834.97 509.744 1850.72 495.581 1864.22C491.764 1867.85 487.874 1871.41 481.643 1877.21L481.635 1877.23ZM457.993 1867.07C471.554 1859.14 482.397 1850.73 491.355 1840.06C501.732 1827.72 509.591 1814.03 513.048 1798.06C516.585 1781.73 511.284 1775.92 494.603 1779.93C473.792 1784.92 456.605 1796.18 444.351 1813.98C434.864 1827.76 435.546 1842.02 445.955 1855.14C449.187 1859.21 453.357 1862.53 457.985 1867.08L457.993 1867.07Z" fill="#1E364C"/>
<path d="M304.207 1817.22C303.75 1807.11 303.413 1796.99 302.795 1786.89C302.282 1778.5 298.208 1773.1 289.499 1771.39C284.855 1770.47 280.164 1769.1 275.897 1767.09C271.069 1764.82 270.677 1758.25 275.023 1755.2C278.48 1752.76 282.345 1750.86 286.138 1748.95C299.387 1742.25 307.872 1731.74 310.382 1717.14C312.636 1704.03 313.895 1690.76 315.779 1677.59C316.373 1673.43 317.167 1669.19 318.634 1665.27C320.046 1661.53 323.422 1659.57 327.536 1659.72C330.8 1659.84 334.409 1663.35 335.147 1666.99C335.572 1669.05 335.484 1671.23 335.756 1673.33C338.21 1692.33 340.688 1711.33 343.207 1730.32C343.415 1731.89 344.121 1733.4 344.337 1734.98C346.086 1747.26 352.574 1754.24 365.525 1754.23C367.105 1754.23 368.717 1754.59 370.249 1755C373.457 1755.88 376.232 1757.46 376.993 1761C377.779 1764.69 375.486 1766.79 372.815 1768.85C367.57 1772.9 361.443 1774.69 355.164 1775.91C346.078 1777.69 337.304 1780.06 331.77 1788.21C325.09 1798.05 320.391 1808.73 320.575 1820.92C320.687 1828.37 321.481 1835.82 321.481 1843.27C321.481 1846.92 320.984 1850.83 319.54 1854.11C318.674 1856.07 315.619 1858.05 313.437 1858.18C311.256 1858.31 307.96 1856.72 306.893 1854.87C305.113 1851.81 304.038 1847.96 303.878 1844.4C303.477 1835.36 303.742 1826.29 303.742 1817.24C303.902 1817.24 304.062 1817.24 304.223 1817.23L304.207 1817.22ZM325.371 1734.59C317.712 1743.44 310.895 1751.29 304.648 1758.51C307.487 1761.68 310.206 1764.26 312.379 1767.26C314.673 1770.42 316.445 1773.96 318.586 1777.57C324.753 1771.72 330.078 1766.66 335.259 1761.75C332.019 1752.85 328.948 1744.43 325.371 1734.6V1734.59Z" fill="#1E364C"/>
<path d="M817.828 1982.14C810.818 1980.84 805.124 1979.8 799.43 1978.73C795.926 1978.07 793.752 1975.93 793.031 1972.47C792.333 1969.13 794.803 1965.67 799.078 1964.26C803.127 1962.93 807.37 1962.16 811.356 1960.7C821.356 1957.02 827.211 1950.04 827.267 1939.05C827.307 1931.59 827.026 1924.11 826.914 1916.64C826.794 1908.63 826.288 1900.6 826.753 1892.62C827.026 1887.96 828.181 1883.04 830.282 1878.92C831.413 1876.7 835.519 1874.58 838.013 1874.85C840.563 1875.13 843.41 1878.01 844.958 1880.48C846.249 1882.53 845.913 1885.63 846.177 1888.28C846.819 1894.65 847.877 1901.03 847.893 1907.41C847.941 1922.27 854.101 1935.38 858.904 1948.93C861.599 1956.54 866.507 1960.15 874.823 1958.77C877.398 1958.34 880.245 1958.37 882.739 1959.03C884.495 1959.51 886.677 1961.16 887.182 1962.75C887.719 1964.43 887.134 1967.39 885.883 1968.52C883.18 1970.97 879.948 1973.09 876.572 1974.49C870.164 1977.12 863.564 1979.37 856.924 1981.39C843.194 1985.57 837.38 1995.61 836.674 2009C836.313 2015.89 837.516 2022.85 837.572 2029.78C837.612 2035.62 837.291 2041.5 836.594 2047.29C836.177 2050.78 833.53 2052.84 829.905 2052.99C826.176 2053.14 823.626 2050.97 822.976 2047.6C821.87 2041.86 821.084 2036 820.795 2030.16C820.233 2018.96 820.225 2007.74 819.736 1996.54C819.552 1992.34 818.646 1988.17 817.82 1982.14L817.828 1982.14ZM849.08 1964.36C847.316 1960.86 845.776 1957.8 843.779 1953.83C838.639 1960.12 834.356 1965.36 829.809 1970.92C831.236 1972.91 832.407 1974.54 834.1 1976.89C839.296 1972.54 844.052 1968.57 849.088 1964.36H849.08Z" fill="#1E364C"/>
<path d="M603.269 1715.72C601.777 1714.55 598.682 1713.15 597.278 1710.77C595.755 1708.18 595.538 1704.69 595.193 1701.55C594.159 1692.02 593.429 1682.46 592.394 1672.92C591.825 1667.64 590.951 1662.39 590.085 1657.14C589.162 1651.57 586.684 1647.15 581.006 1645.01C579.042 1644.28 577.173 1643.11 575.513 1641.81C571.383 1638.57 572.305 1631.75 577.189 1630.15C580.71 1628.99 584.431 1628.47 588.064 1627.68C594.038 1626.36 597.254 1622.47 597.904 1616.58C598.489 1611.3 598.385 1605.92 599.067 1600.65C599.885 1594.34 600.679 1587.92 602.603 1581.9C603.381 1579.48 606.862 1577.34 609.589 1576.26C612.572 1575.08 616.702 1578.1 617.921 1582.1C619.774 1588.21 621.113 1594.47 622.669 1600.67C623.318 1603.25 623.896 1605.86 624.601 1608.43C628.443 1622.36 628.611 1622.48 644.137 1624.2C645.196 1624.32 646.495 1624.15 647.249 1624.7C649.23 1626.16 651.652 1627.65 652.558 1629.71C653.111 1630.97 651.66 1633.84 650.288 1635.08C643.199 1641.51 636.046 1647.9 628.539 1653.84C619.637 1660.9 614.689 1669.84 613.815 1681.09C613.109 1690.12 612.548 1699.15 611.682 1708.16C611.257 1712.62 608.37 1715.4 603.285 1715.72H603.269ZM606.188 1652.78C611.273 1646.54 615.459 1641.42 619.862 1636.03C616.83 1632.54 614.521 1629.89 612.548 1627.62C610.96 1628.01 610.23 1627.96 609.966 1628.29C606.982 1631.97 604.071 1635.71 600.711 1639.98C602.299 1643.68 603.903 1647.44 606.18 1652.78H606.188Z" fill="#1E364C"/>
</g>
<g clip-path="url(#clip3_411_687)">
<path d="M1298.6 1569.14C1320.38 1528.89 1350.79 1494.8 1377.74 1458.09C1385.27 1445.67 1401.38 1446.84 1405.16 1461.58C1424.32 1517.53 1409.96 1570.27 1359.6 1602.93C1337.19 1622.38 1302.42 1639.6 1302.68 1673.37C1303.72 1690.93 1301.57 1708.59 1304.58 1725.96C1335.68 1724.85 1366.34 1720.73 1397.48 1724.11C1413.69 1725.7 1425.2 1732.34 1426.13 1750.07C1427.98 1767.86 1431.54 1785.69 1430.93 1803.63C1430.98 1818.02 1419.92 1821.54 1407.44 1822.12C1407.06 1822.17 1406.72 1822.54 1405.69 1823.17C1396.46 1887.75 1401.35 1954.36 1388.93 2018.66C1387.22 2034.52 1378.9 2047.86 1362.41 2050C1310.47 2058.35 1258.04 2046.44 1205.83 2047.74C1183.49 2049.08 1177.94 2029.51 1177.09 2010.54C1171.58 1949.23 1168.07 1888.09 1168.59 1826.48C1152.47 1826 1135.54 1820.4 1137.22 1801.29C1137.92 1786.81 1140.75 1772.59 1145.96 1759.03C1150 1748.54 1157.82 1742.67 1169.23 1743.53C1184.17 1744.65 1198.8 1742.78 1213.46 1740.41C1236.47 1736.34 1259.34 1734.24 1282.18 1728.95C1282.19 1710.91 1281.4 1693.18 1281.25 1675.18C1281.18 1669.44 1281.4 1663.74 1276.43 1658.93C1262.84 1660.27 1249.2 1663.06 1235.34 1661.88C1179.89 1658.1 1126.07 1603.93 1134.97 1546.3C1136.94 1538.06 1145.51 1533.31 1153.27 1537.28C1185.69 1555.2 1217.48 1574.42 1249.57 1592.99C1260.56 1599.46 1269.85 1608.08 1278.15 1617.8C1280.02 1620 1281.11 1623.35 1284.91 1623.36C1285.26 1622.68 1285.99 1621.95 1285.89 1621.36C1283.59 1608.9 1281.18 1596.45 1278.85 1583.99C1276.76 1572.76 1263.36 1570.85 1255.45 1564.78C1216.07 1544.69 1192.98 1506.57 1195.71 1462.27C1196.53 1446.62 1201.92 1393.11 1226.81 1415.3C1236.3 1426.31 1241.26 1440.15 1246.78 1453.42C1263.06 1492.56 1283.2 1529.65 1298.6 1569.13V1569.14ZM1206.22 2019.18C1254.31 2019.68 1301.86 2025.25 1349.98 2026.36C1364.89 2026.76 1365.46 2025.51 1367.85 2010.24C1377.25 1946.99 1374.81 1882.79 1386.25 1819.82C1344.77 1812.81 1302.36 1819.13 1260.5 1818.92C1242.23 1819.6 1223.97 1820.84 1205.73 1822.02C1201.01 1822.32 1196.14 1822.61 1191.22 1826.38C1186.78 1890.86 1199.97 1955.07 1206.22 2019.18ZM1404.83 1750.84C1326.91 1746.29 1249.87 1774.32 1171.72 1769.76C1166 1783.36 1165.54 1785.74 1166.65 1795.3C1247.09 1791.52 1327.75 1785.47 1408.17 1793.43C1408.6 1778.69 1407.58 1764.99 1404.83 1750.84H1404.83ZM1312.88 1608.55C1355.84 1576.84 1399.99 1542.84 1385.02 1483.98C1381.51 1483.56 1379.63 1487.25 1377.09 1489.14C1347.78 1522.83 1314.37 1562.54 1312.88 1608.55ZM1260.29 1636.22C1258.97 1633.66 1258.57 1631.92 1257.48 1630.93C1251.36 1625.39 1245.6 1619.24 1238.77 1614.75C1212.04 1597.91 1185.96 1579.63 1158.32 1564.43C1153.41 1577.13 1167.79 1602.38 1178.23 1610.71C1200.96 1631.27 1229.18 1642.74 1260.3 1636.21L1260.29 1636.22ZM1222.46 1457.05C1213.02 1490.03 1228.23 1522.87 1259.63 1537.28C1251.96 1510.63 1235.41 1484.48 1224.62 1458.1C1224.36 1457.53 1223.2 1457.39 1222.46 1457.05Z" fill="#0F2840"/>
</g>
<g clip-path="url(#clip4_411_687)">
<path d="M1667.9 623.105C1666.88 624.412 1666.14 626.116 1664.84 626.878C1661.33 628.922 1657.65 630.704 1653.94 632.343C1625.93 644.701 1598.98 659.003 1573.3 675.68C1555.16 687.463 1538.29 700.706 1524.07 717.13C1511.61 731.519 1501.13 747.115 1493.74 764.706C1488.63 776.873 1485.47 789.493 1484.79 802.67C1484.11 815.957 1486.85 828.664 1491.97 840.874C1498.47 856.365 1508.22 869.678 1519.9 881.631C1542.4 904.643 1568.94 921.695 1598.65 933.822C1634.1 948.29 1670.96 955.68 1709.36 955.131C1751.34 954.53 1790.41 943.549 1826.71 922.688C1845.72 911.764 1863.26 898.852 1878.39 882.881C1899.76 860.331 1915.45 834.529 1923.44 804.33C1928.43 785.444 1928.89 766.506 1924.57 747.42C1920.47 729.3 1911.7 713.918 1898.06 701.298C1887.11 691.162 1874.91 682.778 1861.69 675.858C1838.81 663.879 1814.54 656.057 1789.12 651.634C1769.56 648.231 1749.85 646.723 1730.02 646.514C1721.86 646.427 1713.71 646.353 1705.56 646.1C1703.69 646.043 1701.84 645.276 1698.77 644.549C1700.82 642.967 1701.75 641.834 1702.92 641.424C1713.41 637.777 1724.27 635.602 1735.29 634.448C1781.01 629.641 1824.62 637.219 1866 657.264C1879.15 663.635 1891.38 671.444 1902.56 680.878C1925.98 700.64 1938.3 726.085 1941.93 756.2C1946.25 791.977 1937.12 824.755 1920.03 855.742C1909.57 874.719 1896.21 891.557 1880.07 906.073C1843.16 939.274 1800.58 961.563 1751.7 971.272C1720.23 977.521 1688.61 977.381 1657.02 971.943C1627.25 966.818 1598.9 957.454 1572.22 943.217C1547.1 929.813 1524.54 913.089 1505.55 891.784C1497.6 882.86 1490.39 873.369 1484.67 862.849C1474.62 844.36 1469.1 824.72 1470.12 803.537C1470.73 790.974 1473.39 778.79 1477.84 767.033C1490.47 733.601 1510.79 705.63 1539.2 683.942C1569.15 661.068 1601.77 642.562 1636.73 628.338C1643.7 625.506 1651.07 623.632 1658.34 621.61C1661.38 620.76 1664.68 620.455 1667.91 623.109L1667.9 623.105Z" fill="#0F2840"/>
<path d="M1828.5 786.455C1840.57 790.281 1848.01 797.768 1853.67 807.224C1857.28 813.251 1859.49 819.905 1861.03 826.711C1862.93 835.204 1864.52 843.767 1866.13 852.326C1866.56 854.596 1866.7 856.945 1866.7 859.259C1866.68 865.433 1864.18 869.068 1858.21 870.885C1854.62 871.979 1850.84 872.663 1847.1 872.998C1827.94 874.72 1808.72 874.772 1789.51 874.388C1783.43 874.266 1777.31 873.399 1771.32 872.297C1767.42 871.578 1763.71 869.817 1759.1 868.24C1751.18 869.316 1742.27 870.597 1733.34 871.726C1713.55 874.223 1693.81 872.432 1674.08 870.95C1666.68 868.218 1659.41 869.595 1651.86 870.71C1643.87 871.891 1635.61 871.338 1627.47 871.26C1623.11 871.216 1618.87 871.552 1614.52 872.17C1602.93 873.813 1591.25 873.321 1579.88 870.392C1572.43 868.475 1569.45 864.205 1568.98 856.509C1568.88 854.775 1568.9 853.023 1569.02 851.288C1570.12 835.566 1573.25 820.245 1578.48 805.376C1581.32 797.302 1585.52 790.09 1592.55 784.821C1593.18 784.351 1593.58 783.575 1594.4 782.538C1592.7 781.218 1591.15 779.989 1589.58 778.79C1581.04 772.254 1576.65 763.765 1578.63 752.993C1580.77 741.354 1587.13 732.538 1598.72 728.734C1609.99 725.03 1621.19 725.775 1631.52 732.072C1634.18 733.693 1636.54 736.051 1638.52 738.482C1642.25 743.04 1644.51 748.431 1645.81 754.152C1648.5 766.005 1643.41 776.899 1632.59 782.69C1630.58 783.762 1628.53 784.73 1625.78 786.102C1633.42 792.787 1640.23 799.415 1645.21 807.564C1650.19 815.708 1654.94 823.988 1660.11 832.734C1660.9 830.969 1661.71 829.539 1662.19 828.01C1664.86 819.425 1667.21 810.727 1670.13 802.226C1674.6 789.188 1680.74 777.073 1691.24 767.652C1691.63 767.308 1691.71 766.628 1692.1 765.704C1690.55 764.654 1688.91 763.573 1687.29 762.462C1682.18 758.954 1678.02 754.536 1674.76 749.285C1669.02 740.038 1667.74 730.259 1672.03 720.154C1679.83 701.76 1693.59 691.023 1713.69 688.896C1715.95 688.657 1718.77 688.539 1720.51 689.646C1726.81 693.659 1735.08 691.328 1740.9 696.148C1743.76 698.518 1746.76 701.229 1748.42 704.444C1751.33 710.075 1753.9 716.049 1755.46 722.171C1758.78 735.157 1755.16 746.391 1744.58 754.845C1740.08 758.44 1734.94 761.238 1729.83 764.567C1735.2 769.487 1741.19 774.049 1745.98 779.631C1750.67 785.091 1754.53 791.375 1758.03 797.694C1761.68 804.265 1764.48 811.303 1767.88 818.641C1769.03 817.451 1770.12 816.589 1770.87 815.495C1779.93 802.37 1791.86 793.11 1807.22 788.386C1808.04 788.133 1808.78 787.658 1810.25 786.961C1808.73 785.81 1807.57 784.856 1806.33 783.998C1794.56 775.827 1787.67 765.029 1788.23 750.309C1788.73 737.075 1795.55 727.81 1807.95 723.261C1811.72 721.879 1814.69 722.289 1815.84 724.45C1817.33 727.226 1816.06 729.505 1814.28 731.571C1811.62 734.652 1808.69 737.515 1806.23 740.739C1800.72 747.969 1799.59 755.93 1802.54 764.597C1805.52 773.356 1817.47 777.54 1824.9 773.74C1833.02 769.596 1837.87 763.129 1839.85 754.479C1840.34 752.322 1840.06 749.812 1839.5 747.624C1837.57 739.999 1833.3 733.937 1826.52 729.767C1824.35 728.429 1822.13 727.165 1819.23 725.453C1820.71 724.42 1821.46 723.535 1822.38 723.317C1827.08 722.193 1831.59 722.903 1835.93 725.039C1846.07 730.024 1857.15 745.433 1851.36 762.048C1848.29 770.868 1842.98 777.897 1834.88 782.717C1833.17 783.736 1831.44 784.73 1828.5 786.451L1828.5 786.455ZM1761.09 856.544C1759.54 835.257 1750.26 810 1738 793.946C1735.55 790.735 1732.8 787.615 1729.68 785.091C1726.33 782.385 1722.52 780.106 1718.63 778.219C1712.81 775.387 1707.15 776.158 1702.7 781.039C1699.6 784.447 1696.53 788.081 1694.35 792.094C1691.31 797.676 1688.57 803.542 1686.64 809.586C1682.42 822.846 1678.76 836.285 1674.97 849.68C1674.61 850.936 1674.92 852.382 1674.92 853.611C1682.63 855.629 1744.42 857.694 1761.09 856.544ZM1852.37 857.163C1850.6 845.676 1848.92 835.392 1845.35 825.57C1843.79 821.26 1841.68 816.998 1839.06 813.242C1832.93 804.452 1824.41 800.226 1813.53 801.977C1799.78 804.191 1788.35 810.54 1779.68 821.543C1775.81 826.454 1773.3 832.093 1773.11 838.277C1772.93 844.029 1773.8 849.816 1774.27 855.585C1774.33 856.404 1774.73 857.202 1775.06 858.322C1776.18 858.431 1777.28 858.666 1778.37 858.631C1787.07 858.33 1795.76 857.79 1804.46 857.685C1816.95 857.537 1829.44 857.733 1841.94 857.707C1845.09 857.699 1848.24 857.394 1852.38 857.167L1852.37 857.163ZM1651.66 855.79C1651.66 854.866 1651.86 853.964 1651.62 853.206C1646.12 835.88 1637.85 820.009 1625.93 806.226C1622.95 802.779 1619.17 799.816 1615.26 797.419C1608.54 793.293 1603.28 794.277 1598.5 800.574C1595.92 803.977 1593.93 807.987 1592.41 812.004C1588.09 823.43 1585.61 835.361 1583.7 847.393C1583.3 849.881 1583.64 852.482 1583.64 855.149C1587.15 857.437 1591 857.054 1594.7 857.346C1602.79 857.986 1611 857.254 1618.93 859.664C1620.25 860.065 1621.81 859.947 1623.22 859.79C1631.89 858.853 1640.55 857.851 1649.2 856.81C1649.98 856.714 1650.71 856.191 1651.65 855.786L1651.66 855.79ZM1710.32 754.806C1717.99 754.47 1727.6 750.914 1735.95 744.077C1740.17 740.622 1742.64 736.194 1743.28 730.743C1744.22 722.673 1742.41 715.395 1737.9 708.541C1731.6 698.98 1725.23 696.479 1714.24 700.017C1706.99 702.353 1700.37 705.913 1694.4 710.584C1689.33 714.554 1685.12 719.278 1682.67 725.379C1680.35 731.157 1680.7 736.761 1684.06 741.973C1689.44 750.331 1696.97 755.08 1710.32 754.806ZM1612.37 772.864C1616.27 771.896 1620.33 771.343 1624.03 769.875C1630.64 767.247 1633.2 762.096 1631.68 755.263C1631.06 752.466 1630.07 749.707 1628.93 747.075C1627.54 743.89 1625.95 740.565 1622.37 739.38C1618.07 737.955 1613.76 735.75 1608.99 737.719C1605.26 739.262 1601.3 740.421 1597.87 742.469C1595.23 744.038 1592.81 746.413 1591.09 748.971C1586.16 756.309 1588.01 763.678 1595.6 768.136C1600.71 771.134 1606.31 772.446 1612.37 772.868V772.864Z" fill="#0F2840"/>
</g>
<g clip-path="url(#clip5_411_687)">
<path d="M1929.22 1782.09C1930.55 1780.25 1931.12 1778.86 1932.15 1778.13C1946.54 1768.02 1957.38 1754.57 1967.25 1740.34C1989.03 1708.93 2004.37 1674.51 2013.59 1637.44C2020.33 1610.4 2022.07 1583 2016.31 1555.55C2012.13 1535.67 2003.87 1517.37 1991.57 1501.16C1987.41 1495.67 1982.01 1491.03 1976.74 1486.49C1974.17 1484.28 1970.62 1484.27 1967.69 1486.69C1964.82 1489.07 1964.24 1492.31 1965.48 1495.57C1966.8 1499.04 1968.5 1502.41 1970.41 1505.6C1978.87 1519.75 1984.32 1535.15 1989.12 1550.78C1994.27 1567.53 1995.33 1584.89 1993.58 1602.13C1987.74 1659.83 1964.56 1709.82 1925 1752.2C1923.11 1754.22 1920.85 1755.93 1918.63 1757.61C1917.97 1758.1 1916.87 1758.02 1915.36 1758.32C1914.95 1756.71 1914.16 1755.01 1914.15 1753.3C1914.08 1739.75 1914.73 1726.24 1917.78 1712.95C1918.4 1710.23 1919.03 1707.47 1919.24 1704.7C1919.59 1700.04 1917.3 1696.6 1913.29 1694.46C1909.13 1692.24 1904.85 1692.97 1901.54 1695.9C1898.81 1698.31 1896.51 1701.46 1894.74 1704.68C1885.71 1721.12 1878.53 1738.32 1874.36 1756.67C1873.54 1760.29 1873.17 1764.03 1872.75 1767.74C1870.99 1783.33 1877.54 1794.88 1890.26 1803.35C1899.34 1809.39 1909.44 1812.93 1920.07 1815.01C1942.64 1819.41 1965.46 1820.41 1988.37 1820.06C1992.5 1819.99 1996.81 1819.23 2000.7 1817.83C2008.27 1815.1 2009.76 1806.04 2003.36 1801.05C2000.17 1798.57 1996.08 1796.82 1992.12 1795.82C1983.99 1793.74 1975.68 1792.37 1967.45 1790.74C1957.38 1788.73 1947.29 1786.82 1937.24 1784.72C1934.69 1784.19 1932.26 1783.11 1929.22 1782.09L1929.22 1782.09Z" fill="#0F2840"/>
</g>
<path d="M1592.11 248.816C1591.92 235.617 1591.11 222.35 1596.46 209.759C1601 199.043 1605.26 197.382 1614.47 203.648C1618.22 206.207 1621.13 209.716 1625.82 211.223C1630.11 212.609 1629.47 217.214 1629.88 220.963C1631.37 234.624 1630.78 248.268 1629.17 261.843C1627.81 273.39 1629.26 283.156 1640.49 289.832C1646.45 293.384 1649.69 300.369 1656.16 303.904C1670.76 311.898 1685.36 309.228 1699.89 304.374C1709.78 301.062 1718.33 294.976 1727.34 289.815C1750.67 276.454 1774.16 263.401 1797.54 250.125C1806.16 245.238 1814.81 240.325 1822.02 233.426C1826.25 229.377 1830.96 227.528 1836.07 230.498C1841.72 233.785 1847.18 237.637 1852.08 241.977C1856.21 245.666 1854.97 253.138 1849.23 259.823C1843.72 266.242 1837.38 271.943 1831.78 278.285C1816.15 296.003 1795.63 307.019 1775.62 318.361C1748.17 333.93 1719.44 347.223 1689.7 357.794C1675.29 362.912 1660.67 368.519 1644.3 365.497C1628.12 362.501 1616.85 353.813 1608.49 340.358C1595.12 318.788 1590.34 295.07 1591.07 270.009C1591.28 262.939 1591.76 255.877 1592.11 248.816Z" fill="#1E364C"/>
<path d="M616.11 2299.52C610.077 2299.6 605.798 2299.31 601.614 2299.82C597.404 2300.33 593.887 2301.97 591.098 2305.95C585.245 2314.34 576.816 2316.92 569.756 2313.5C562.663 2310.05 558.436 2300.91 559.788 2291.94C562.278 2275.42 580.307 2258.46 596.608 2258.03C618.548 2257.46 638.786 2264.89 656.473 2276.49C668.384 2284.3 677.326 2296.63 678.755 2312.62C679.671 2322.92 679.936 2333.27 680.655 2343.57C681.519 2355.99 675.426 2366.14 664.816 2373.4C654.539 2380.44 642.953 2384.41 631.469 2388.6C611.266 2395.96 592.005 2405.3 578.476 2422.38C566.248 2437.81 554.285 2453.78 547.474 2472.7C545.181 2479.08 543.093 2486.26 534.758 2485.46C526.886 2484.7 520.888 2481.47 516.421 2472.93C511.287 2463.13 515.642 2455.88 517.422 2447.44C521.469 2428.3 529.171 2410.84 539.165 2394.06C548.74 2377.95 561.841 2366.56 579.075 2359.7C589.583 2355.52 599.971 2350.91 610.753 2347.55C621.98 2344.06 630.862 2337.33 639.153 2329.58C646.547 2322.66 646.435 2319.68 641.164 2311.28C634.789 2301.13 625.377 2298.61 616.101 2299.52" fill="#1E364C"/>
<path d="M2057.43 2231.06C2057.53 2229.08 2057.78 2225.49 2057.86 2221.88C2057.9 2219.72 2057.81 2217.53 2057.53 2215.38C2056.41 2207.02 2053.11 2203.92 2044.64 2204.16C2036.61 2204.39 2029.37 2206.81 2022.38 2211.31C2013.78 2216.84 2010.66 2224.81 2018.09 2235.22C2024.17 2243.74 2031.29 2251.5 2040.32 2257.15C2042.44 2258.48 2044.68 2259.73 2047.01 2260.61C2050.17 2261.79 2052.42 2261.08 2053.45 2257.27C2055.63 2249.2 2056.5 2240.95 2057.43 2231.06ZM1879.97 2416.34C1882 2419.87 1885.37 2420.58 1888.26 2421.9C1901.75 2428.04 1915.24 2434.18 1928.85 2440.03C1934.95 2442.65 1940.22 2446.16 1944.89 2450.9C1948.45 2454.52 1947.86 2458.39 1945.67 2461.73C1943.6 2464.87 1940.93 2467.25 1935.79 2465.38C1926.86 2462.15 1919.18 2456.66 1910.41 2453.14C1885.2 2443.04 1861.38 2429.93 1836.82 2418.43C1830.39 2415.41 1825.72 2410.46 1822 2404.52C1820.16 2401.57 1818.79 2397.83 1821.61 2395.51C1828.06 2390.2 1832.65 2381.61 1842.58 2381.79C1847.65 2381.88 1851.57 2379.67 1855.55 2377.04C1870.7 2366.98 1883.9 2354.67 1896.81 2341.98C1904.03 2334.87 1911.25 2327.79 1920.52 2323.19C1926.96 2320 1933.17 2321.37 1937.12 2327.39C1941.21 2333.63 1940.39 2338.22 1933.56 2342.89C1927.52 2347.01 1922.67 2352.25 1917.48 2357.3C1907.42 2367.06 1896.54 2375.97 1886.04 2385.28C1883.44 2387.59 1879.57 2388.72 1878.63 2393.08C1900.94 2393.59 1921.75 2387.53 1941.87 2379.42C1971.01 2367.69 1997.28 2351.32 2018.78 2327.96C2031.47 2314.16 2040.54 2298.21 2046.86 2280.66C2049.75 2272.63 2048.98 2270.62 2041.26 2266.96C2025.9 2259.7 2015.53 2246.94 2006.56 2233.5C1999.64 2223.11 2001.17 2210.73 2005.59 2199.15C2006.06 2197.91 2007.3 2196.8 2008.43 2196C2022.29 2186.21 2037.23 2180.05 2054.04 2186.94C2070.98 2193.87 2079.91 2207.22 2080.9 2225.62C2081.34 2233.55 2081.76 2241.48 2079.98 2250.05C2085.15 2249.22 2087.26 2245.94 2089.54 2242.88C2099.06 2230.05 2104.29 2215.39 2106.12 2199.77C2109.29 2172.51 2106.48 2145.68 2099.27 2119.15C2089.28 2082.37 2055.83 2072.75 2030.65 2075.95C2023.52 2076.87 2016.34 2077.6 2009.31 2079.74C2001.59 2082.09 1992.04 2075.66 1990.36 2067.87C1989.26 2062.77 1992.17 2057.79 1997.64 2056.53C2018.47 2051.77 2039.23 2051.18 2059.6 2058.8C2087.83 2069.35 2108.65 2087.26 2118.37 2116.83C2122.24 2128.59 2125.14 2140.46 2126.8 2152.66C2130.04 2176.41 2132.28 2200.27 2126.08 2223.82C2119.39 2249.22 2107.42 2270.66 2079.69 2278.14C2074.6 2279.51 2072.95 2282.66 2071.55 2287.06C2066.06 2304.37 2059.23 2321.06 2047.07 2334.95C2027.34 2357.51 2004.52 2375.93 1977.14 2388.71C1956.4 2398.4 1935.25 2406.49 1912.8 2411.19C1905.69 2412.68 1898.55 2413.56 1891.31 2413.86C1887.42 2414.03 1883.53 2414.13 1879.97 2416.34Z" fill="#1E364C"/>
<path d="M1684.58 1290.14C1690.46 1297.02 1698.14 1300.93 1704.91 1305.89C1715.23 1313.46 1724.65 1321.87 1732.87 1331.66C1736.22 1335.64 1740.14 1338.91 1744.27 1342.12C1752.09 1348.22 1753.89 1358.22 1749.04 1364.52C1744.06 1370.98 1730.49 1371.93 1723.77 1365.97C1720.26 1362.86 1716.83 1359.46 1714.13 1355.66C1701.9 1338.36 1685.06 1326.38 1668.1 1314.38C1662.63 1310.5 1659.07 1311.3 1654.66 1315.46C1643.37 1326.09 1631.6 1336.22 1620.48 1347.03C1610.03 1357.2 1597.5 1364.88 1587.42 1375.53C1583.61 1379.55 1579.73 1379.83 1576.83 1373.18C1574.93 1368.81 1573.29 1363.82 1567.69 1361.38C1560.99 1358.47 1562.23 1353.37 1566.68 1348.96C1573.37 1342.33 1580.15 1335.77 1587.09 1329.39C1599.58 1317.92 1612.27 1306.65 1624.78 1295.19C1632.86 1287.8 1632.7 1287.8 1625.33 1280.39C1612.7 1267.7 1600.13 1254.94 1587.65 1242.11C1581.69 1235.98 1576.87 1228.98 1573.72 1221.02C1572.17 1217.11 1571.04 1212.79 1574.99 1209.26C1578.24 1206.34 1581.25 1209.14 1584.24 1209.81C1592.36 1211.63 1598.36 1216.86 1604.17 1222.5C1618.39 1236.25 1632.33 1250.25 1647.51 1263.01C1653.21 1267.8 1656.7 1267.62 1661.62 1262.49C1676.31 1247.2 1691.24 1232.14 1706.22 1217.14C1712.86 1210.48 1719.98 1204.26 1726.66 1197.62C1730 1194.29 1732.94 1194.1 1736.38 1197.25C1738.1 1198.84 1740.2 1200.01 1741.97 1201.57C1752.22 1210.62 1752.55 1217.46 1743.86 1227.69C1730.11 1243.89 1714.46 1258.21 1699.58 1273.28C1694.37 1278.55 1688.35 1283.2 1684.57 1290.13" fill="#1E364C"/>
</g>
<defs>
<clipPath id="clip0_411_687">
<rect width="2208" height="2592" fill="white"/>
</clipPath>
<clipPath id="clip1_411_687">
<rect width="392" height="306" fill="white" transform="translate(240 609)"/>
</clipPath>
<clipPath id="clip2_411_687">
<rect width="616" height="477" fill="white" transform="translate(272 1576)"/>
</clipPath>
<clipPath id="clip3_411_687">
<rect width="297" height="643" fill="white" transform="translate(1134 1410)"/>
</clipPath>
<clipPath id="clip4_411_687">
<rect width="473" height="355" fill="white" transform="translate(1470 621)"/>
</clipPath>
<clipPath id="clip5_411_687">
<rect width="184.538" height="332.544" fill="white" transform="matrix(-0.980392 0.197059 0.197059 0.980392 2000.92 1479)"/>
</clipPath>
</defs>
</svg>
